<?xml version="1.0" encoding="UTF-8"?>
<svg width="64px" height="64px" viewBox="0 0 64 64" version="1.1" xmlns="http://www.w3.org/2000/svg" xmlns:xlink="http://www.w3.org/1999/xlink">
    <title>ic_qbdocs-dark</title>
    <g id="ic_qbdocs-dark" stroke="none" stroke-width="1" fill="none" fill-rule="evenodd">
        <path d="M40.2439535,3.42857143 C40.5475063,3.42857143 40.8385886,3.54933469 41.0529898,3.76422181 L41.0529898,3.76422181 L53.3804648,16.1196367 C53.5942328,16.3338891 53.7142857,16.6241871 53.7142857,16.9268434 L53.7142857,16.9268434 L53.7142857,57.1428571 C53.7142857,58.089631 53.3305298,58.9467739 52.7100804,59.5672232 C52.089631,60.1876726 51.2324881,60.5714286 50.2857143,60.5714286 L50.2857143,60.5714286 L13.7142857,60.5714286 C12.7675119,60.5714286 11.910369,60.1876726 11.2899196,59.5672232 C10.6694702,58.9467739 10.2857143,58.089631 10.2857143,57.1428571 L10.2857143,57.1428571 L10.2857143,6.85714286 C10.2857143,5.910369 10.6694702,5.05322614 11.2899196,4.43277675 C11.910369,3.81232736 12.7675119,3.42857143 13.7142857,3.42857143 L13.7142857,3.42857143 Z" id="Combined-Shape" stroke="#FFFFFF" stroke-width="2.28571429" fill-opacity="0.4" fill="#FFFFFF"></path>
        <path d="M29.6403682,20.5826095 C31.5138823,20.6380897 31.8442912,20.6554655 33.3842804,20.9276186 C34.9242696,21.1997717 35.3420455,21.4102083 36.3968603,21.7766441 C37.451675,22.1430798 37.5173502,22.2134168 38.4324404,22.6813162 C39.3475306,23.1492155 39.3437818,23.1592436 40.1989782,23.7207241 C41.0541746,24.2822047 41.0534027,24.2829255 41.8470216,24.9231649 C42.6406406,25.5634044 42.7564885,25.6737127 43.3653462,26.2751412 L43.6216954,26.5306637 C43.9784512,26.8913387 44.0309414,26.9766539 44.5021513,27.5458971 C45.0676032,28.2289889 45.2580513,28.5031771 45.5791307,28.9494945 C45.6489306,29.04652 45.6811727,29.089797 45.6965678,29.1100796 L45.7082807,29.1253498 C45.7124655,29.130796 45.7111701,29.1293991 45.7149983,29.136905 L45.7259087,29.1568094 C45.7549156,29.2076729 45.8490819,29.3633863 46.1740924,29.8699839 C46.3801172,30.191117 46.5859549,30.5123507 46.7916056,30.833685 C47.1910336,31.4577882 47.0088904,32.2875225 46.3847834,32.6869446 C46.3132011,32.7327565 46.2374279,32.7716633 46.1584852,32.8031405 L44.3656051,33.5180235 C44.6282891,34.2219116 44.8529346,34.7837453 45.0395417,35.2035244 C45.2135838,35.5950381 46.1798126,37.5735506 47.9382283,41.139062 C48.1169604,41.5015431 47.9680355,41.9402942 47.6055679,42.1190536 C47.5632862,42.1399058 47.5190884,42.1566233 47.4735907,42.1689731 L46.4676358,42.442026 C45.3805006,42.7371142 44.2349537,42.232645 43.7186674,41.2314516 L39.3374824,32.7353643 C39.0255887,32.1305333 38.3379741,31.8204623 37.678185,31.9871254 L32.4137337,33.3169285 C32.3054235,33.3442877 32.2295391,33.4417241 32.2295391,33.5534363 L32.2295391,34.5038787 C32.2295391,34.8406848 31.9565038,35.1137202 31.6196976,35.1137202 L31.589739,35.1137202 L31.589739,49.7978411 C31.589739,50.067286 31.3713108,50.2857143 31.1018658,50.2857143 L28.3973445,50.2857143 C28.1278995,50.2857143 27.9094713,50.067286 27.9094713,49.7978411 L27.9094713,35.1137202 L27.8414418,35.1137202 C27.5046356,35.1137202 27.2316003,34.8406848 27.2316003,34.5038787 L27.2316003,33.6568856 C27.2316003,33.5707966 27.1862224,33.491082 27.1121971,33.4471322 L17.7373227,27.8811429 C17.5916622,27.7946623 17.4710256,27.6717502 17.3872817,27.5244993 L16.0697358,25.2077943 C15.9148481,24.9354476 15.9915326,24.5900448 16.2471179,24.4088292 L17.5566566,23.4803373 C17.253434,23.044979 17.253434,22.6888146 17.5566566,22.4118444 C17.8598791,22.1348742 18.2117196,22.2246981 18.612178,22.6813162 L19.494344,22.0566115 C19.7258362,21.8926806 20.0397917,21.9100057 20.2518408,22.0984125 L20.9078903,22.6813162 L22.3112332,22.0593615 C22.7409471,21.8689145 23.1813106,21.7034662 23.63012,21.5638447 C24.0289139,21.4397826 24.2701702,21.3661135 24.3538887,21.3428371 C25.1111437,21.1322971 25.5978409,21.0407592 25.7715972,20.9983608 C26.0361408,20.9338094 26.3590227,20.8848806 26.7402429,20.8515744 L26.7429231,20.8541274 C26.9103259,21.0135883 27.1753013,21.0071501 27.3347621,20.8397473 L27.3713594,20.7956387 L27.3713594,20.7956387 L27.4015888,20.7469446 C27.645099,20.600401 28.3913588,20.5456227 29.6403682,20.5826095 Z M27.2499988,26.1735547 L25.3018472,26.6570087 C24.5826871,26.8354757 24.1443687,27.5631463 24.3228357,28.2823064 C24.3837354,28.527711 24.5127424,28.7509113 24.6949867,28.9261801 L27.8833192,31.9924771 L27.8833192,26.7314436 L27.8078876,26.7314436 C27.5305854,26.7314436 27.3005372,26.5291255 27.2573006,26.2640472 L27.2499988,26.1735547 Z M32.2070986,26.1814399 L32.1938801,26.2424687 C32.1331136,26.5230219 31.8849177,26.723215 31.597859,26.723215 L31.597859,26.723215 L31.5852839,26.723215 L31.5852839,31.9924771 L34.9091591,30.5418214 C35.4446487,30.3081149 35.8472528,29.8467734 36.0063307,29.2845795 C36.2997768,28.2475171 35.6969568,27.1689268 34.6598943,26.8754806 L34.6598943,26.8754806 L32.2070986,26.1814399 Z" id="QuickBend-Logo" stroke="#FFFFFF" fill="#FFFFFF" fill-rule="nonzero" stroke-linejoin="round"></path>
        <path d="M40.2209821,3.12751116 L54.0126953,16.9423828 L42.5066964,16.9423828 C41.2443313,16.9423828 40.2209821,15.9190337 40.2209821,14.6566685 L40.2209821,3.12751116 L40.2209821,3.12751116 Z" id="Rectangle" fill="#FFFFFF"></path>
    </g>
</svg>