<?xml version="1.0" encoding="UTF-8"?>
<svg width="512px" height="512px" viewBox="0 0 512 512" version="1.1" xmlns="http://www.w3.org/2000/svg" xmlns:xlink="http://www.w3.org/1999/xlink">
    <title>QuickBend-Logo</title>
    <g id="QuickBend-Logo" stroke="none" stroke-width="1" fill="none" fill-rule="evenodd" stroke-linejoin="round">
        <path d="M246.118285,84.1285171 C268.234651,84.7689414 272.135046,84.9695148 290.314233,88.1110564 C302.433692,90.2054175 308.665396,91.9831516 315.162689,94.1888965 L315.976679,94.4668977 C318.969645,95.4948043 322.072263,96.6191406 325.876987,97.9116017 C332.102899,100.026538 335.409675,101.286986 338.510275,102.693838 L339.128449,102.977457 C340.053999,103.406703 340.977271,103.85513 341.971515,104.349764 L342.645662,104.686661 C344.590092,105.662279 346.845819,106.824181 349.906502,108.354492 C354.935211,110.868796 357.613379,112.237733 360.058115,113.636654 L360.598408,113.948497 C363.199568,115.462739 365.712349,117.112011 370.76004,120.352677 C371.282215,120.687919 371.777356,121.005842 372.24816,121.308365 L373.158117,121.893445 C380.92354,126.890305 381.653935,127.479438 390.214781,134.232797 C399.583254,141.623265 400.95081,142.896586 408.138223,149.839048 C411.79727,153.373393 413.478785,155.067255 415.128649,156.918959 L415.482415,157.318897 C416.960335,159.001439 418.523825,160.923601 421.557924,164.507749 C425.963436,169.711932 428.440623,172.860042 430.705518,175.880325 L431.115359,176.428488 C431.251448,176.611025 431.387139,176.793523 431.522815,176.976409 L431.930175,177.526664 C432.678318,178.539179 433.437539,179.576444 434.271397,180.709878 C438.061659,185.861847 432.470434,177.885409 441.294772,191.335351 C443.70617,195.010775 446.115399,198.68734 448.522456,202.365048 C453.180172,209.481499 451.186971,219.026347 444.070519,223.684061 C443.177353,224.268637 442.225828,224.758765 441.23129,225.146538 L419.94603,233.445722 C423.046949,241.570905 425.698833,248.056312 427.901683,252.901943 C429.010729,255.341523 432.844743,263.119158 439.403724,276.234849 L440.143714,277.714115 C445.652539,288.723161 452.970534,303.276266 462.097698,321.37343 C464.186782,325.51563 462.522405,330.567084 458.380206,332.65617 C457.860549,332.918255 457.31506,333.125623 456.752531,333.274932 L444.759977,336.45805 C431.883765,339.875712 418.353717,333.946281 412.139464,322.16238 L360.433301,224.113556 C356.831944,217.28441 349.039696,213.788942 341.544404,215.640322 L278.811364,231.135739 C277.561164,231.444545 276.682801,232.566268 276.682801,233.854042 L276.682801,244.865308 C276.682801,248.731301 273.548794,251.865308 269.682801,251.865308 L269.130121,251.865308 L269.130121,420 C269.130121,423.865993 265.996114,427 262.130121,427 L232.685479,427 C228.819485,427 225.685479,423.865993 225.685479,420 L225.685479,251.865308 L224.683381,251.865308 C220.817388,251.865308 217.683381,248.731301 217.683381,244.865308 L217.683381,235.057814 C217.683381,234.059877 217.152248,233.137366 216.289212,232.636319 L105.548472,168.344303 C103.866572,167.367853 102.467916,165.970278 101.490166,164.289133 L85.9497505,137.568894 C84.1144336,134.413245 85.0123381,130.376992 88.0123722,128.297014 L103.473086,117.577823 C99.8936195,112.552356 99.8936195,108.441049 103.473086,105.243902 C107.052552,102.046755 111.205941,103.083618 115.933253,108.354492 L126.543112,101.007547 C129.17347,99.1861191 132.704021,99.3799153 135.119217,101.4783 L143.033563,108.354492 L159.908217,101.041375 C164.768831,98.9348877 169.745088,97.1059784 174.81298,95.5634704 C179.733203,94.065908 182.699781,93.1794324 183.712714,92.9040438 C192.65192,90.4737194 198.39726,89.4170714 200.448409,88.9276546 C203.57128,88.1825184 207.382821,87.6177191 211.88303,87.2332568 L211.947026,87.2928662 C213.951758,89.1601932 217.090682,89.0488045 218.958009,87.0440726 C219.186914,86.7983237 219.390123,86.5301245 219.564615,86.2436768 L219.690053,86.025485 C221.939722,84.7016283 227.824336,84.0265507 237.343896,84.0002522 L238.416583,84 C240.77315,84.0052383 243.340384,84.0480774 246.118285,84.1285171 Z M217.90057,148.666406 L194.700061,154.296331 C186.43475,156.302023 181.360326,164.628317 183.366018,172.893628 C184.070658,175.797401 185.604841,178.433467 187.781554,180.480498 L225.37676,215.835901 L225.37676,155.106278 L224.340442,155.106278 C220.861117,155.106278 218.026246,152.347044 217.904635,148.897384 L217.90057,148.666406 Z M276.417896,148.757427 L276.247854,149.525109 C275.537941,152.730119 272.696195,155.011292 269.413503,155.011292 L269.413503,155.011292 L269.07753,155.011292 L269.07753,215.835901 L308.451982,199.032125 C314.720984,196.356712 319.430773,190.972505 321.248416,184.403305 C324.547464,172.48012 317.556219,160.140063 305.633034,156.841016 L305.633034,156.841016 L276.417896,148.757427 Z" stroke="#000000" stroke-width="4.19999993" fill="#FFFFFF" fill-rule="nonzero"></path>
    </g>
</svg>